<svg width="473" height="214" viewBox="0 0 473 214" fill="none" xmlns="http://www.w3.org/2000/svg">
<g clip-path="url(#clip0_1_3)">
<path d="M419.338 30.5714H385.266L408.555 60.9807H472.98L419.338 30.5714Z" fill="#94FCFC"/>
<path d="M473 61H408.566L439 108.5L473 61Z" fill="#5FBAE6"/>
<path d="M439 108.5L408.57 61L358.565 214L439 108.5Z" fill="#2395D0"/>
<path d="M56.6257 92.1533H36.3419V152.857H12.9079V92.1533H0V82.1155L12.9079 76.5163V70.9172C12.9079 62.2224 15.3153 55.872 20.1301 51.866C24.945 47.8601 32.654 45.8571 43.2568 45.8571C51.3499 45.8571 58.5466 46.9269 64.8468 49.0664L58.8538 64.362C54.1414 63.0417 49.7876 62.3818 45.7922 62.3818C42.4629 62.3818 40.0554 63.2694 38.57 65.0447C37.0846 66.7746 36.3419 69.0052 36.3419 71.7365V76.5163H56.6257V92.1533Z" fill="#303030"/>
<path d="M107.396 151.475L103.332 140.968H102.782C99.2463 145.438 95.5963 148.549 91.8315 150.3C88.1127 152.005 83.246 152.857 77.2315 152.857C69.8398 152.857 64.009 150.738 59.7391 146.498C55.5152 142.259 53.4032 136.222 53.4032 128.388C53.4032 120.186 56.2499 114.149 61.9429 110.278C67.6819 106.361 76.3133 104.196 87.8372 103.781L101.198 103.366V99.9791C101.198 92.1454 97.2033 88.2285 89.2145 88.2285C83.0624 88.2285 75.8313 90.0948 67.5212 93.8274L60.5656 79.5883C69.4265 74.9342 79.2517 72.6071 90.041 72.6071C100.371 72.6071 108.291 74.865 113.8 79.3811C119.31 83.897 122.065 90.763 122.065 99.9791V151.475H107.396ZM101.198 115.67L93.0711 115.946C86.9649 116.131 82.4197 117.237 79.4354 119.264C76.4511 121.292 74.959 124.379 74.959 128.526C74.959 134.471 78.3565 137.443 85.1513 137.443C90.018 137.443 93.8976 136.038 96.7901 133.227C99.7284 130.416 101.198 126.683 101.198 122.029V115.67Z" fill="#303030"/>
<path d="M171.245 152.857C146.087 152.857 133.508 139.632 133.508 113.182C133.508 100.027 136.93 89.9865 143.774 83.0624C150.617 76.0923 160.425 72.6071 173.198 72.6071C182.548 72.6071 190.933 74.3613 198.355 77.8693L191.848 94.2103C188.378 92.8716 185.149 91.7868 182.162 90.9559C179.173 90.0789 176.185 89.6404 173.198 89.6404C161.727 89.6404 155.992 97.4415 155.992 113.044C155.992 128.184 161.727 135.755 173.198 135.755C177.438 135.755 181.367 135.224 184.981 134.162C188.596 133.054 192.209 131.346 195.825 129.038V147.11C192.259 149.28 188.644 150.78 184.981 151.611C181.367 152.442 176.788 152.857 171.245 152.857Z" fill="#303030"/>
<path d="M237.685 87.6323C232.895 87.6323 229.143 89.0633 226.426 91.9253C223.711 94.741 222.156 98.7571 221.761 103.973H253.462C253.364 98.7571 251.907 94.741 249.092 91.9253C246.276 89.0633 242.474 87.6323 237.685 87.6323ZM240.871 152.857C227.538 152.857 217.119 149.418 209.614 142.54C202.108 135.662 198.355 125.922 198.355 113.321C198.355 100.35 201.812 90.3327 208.725 83.2702C215.687 76.1614 225.291 72.6071 237.537 72.6071C249.24 72.6071 258.35 75.7229 264.868 81.9545C271.387 88.1863 274.645 96.7952 274.645 107.781V118.029H221.242C221.488 124.03 223.39 128.715 226.945 132.085C230.5 135.455 235.489 137.14 241.907 137.14C246.895 137.14 251.61 136.655 256.054 135.685C260.498 134.716 265.14 133.17 269.98 131.046V147.387C266.029 149.234 261.808 150.595 257.313 151.472C252.819 152.396 247.339 152.857 240.871 152.857Z" fill="#303030"/>
<path d="M321.521 135.986C325.453 135.986 330.173 135.176 335.677 133.556V149.316C330.074 151.677 323.192 152.857 315.031 152.857C306.036 152.857 299.474 150.728 295.344 146.47C291.265 142.165 289.224 135.731 289.224 127.168V89.7453H278.46V80.7889L290.846 73.7069L297.336 57.3214H311.714V73.8457H334.793V89.7453H311.714V127.168C311.714 130.177 312.599 132.398 314.369 133.833C316.187 135.268 318.571 135.986 321.521 135.986Z" fill="#303030"/>
</g>
<defs>
<clipPath id="clip0_1_3">
<rect width="473" height="214" fill="white"/>
</clipPath>
</defs>
</svg>
